<svg width="40" height="40" viewBox="0 0 40 40" fill="none" xmlns="http://www.w3.org/2000/svg">
<path d="M0 10C0 4.47715 4.47715 0 10 0H30C35.5228 0 40 4.47715 40 10V30C40 35.5228 35.5228 40 30 40H10C4.47715 40 0 35.5228 0 30V10Z" fill="#D1FE16"/>
<g clip-path="url(#clip0_646_74)">
<path d="M31.6897 19.772L31.6675 19.5206C31.4563 17.1083 29.9348 12.5697 25.7142 12.5697C22.5823 12.5697 20.2163 15.7594 18.1284 18.5715C16.4622 20.8236 15.0187 22.7556 13.4302 22.7556C13.008 22.71 12.4639 22.4927 12.1309 22.0012C11.831 21.5551 11.7533 20.9836 11.9086 20.2976C12.1528 19.2116 13.5525 18.2055 15.0295 17.1309C15.8401 16.5593 16.6733 15.9534 17.2509 15.3704C18.917 13.7127 19.761 12.5123 19.761 10.5804C19.761 8.64846 18.7282 7.68791 17.8619 7.27629C16.1292 6.45338 13.5859 6.93349 11.9644 8.37416C11.7202 8.60291 11.4756 8.81985 11.2534 9.02567C9.62071 10.5234 8.52132 11.5409 6 10.7632V13.8956C9.34307 15.4162 12.1532 12.5123 13.2195 11.1749C14.0412 10.2946 14.9075 9.78008 15.552 9.78008H15.5854C15.8742 9.79155 16.1184 9.90593 16.2964 10.1117C16.5851 10.4549 16.6963 10.855 16.6405 11.3007C16.5183 12.2383 15.5742 13.3355 13.8416 14.536C11.809 15.9422 8.41052 18.2972 8.14371 21.2582C7.94376 23.3848 9.01004 25.5111 10.6762 26.334C14.5634 28.2317 16.9293 24.9622 19.4392 21.5096C21.3607 18.8458 23.1822 16.3194 25.7145 16.3194C27.9913 16.3194 28.8354 18.2628 28.8354 19.4862V19.7264L28.6132 19.772C23.0933 20.7781 20.0833 26.1055 20.0833 28.5634C20.0833 31.0214 22.1048 33.125 24.5926 33.125C27.5026 33.125 31.101 30.5641 31.6787 23.3618L31.7009 23.099H34V19.7723L31.6897 19.772ZM28.6797 23.4644C28.2356 27.7743 26.0918 29.7866 24.7925 29.7866C24.2038 29.7866 23.3821 29.2834 23.3821 28.3461C23.3821 27.2946 24.9036 24.1048 28.3244 23.156L28.7242 23.0531L28.6797 23.4644Z" fill="#0F1113"/>
</g>
<defs>
<clipPath id="clip0_646_74">
<rect width="28" height="28" fill="white" transform="translate(6 6)"/>
</clipPath>
</defs>
</svg>
